<svg height="512" viewBox="0 0 128 128" width="512" xmlns="http://www.w3.org/2000/svg"><g><path d="m86.8 79.115a1.753 1.753 0 0 0 -2.08-1.341l-3.194.689a1.75 1.75 0 1 0 .738 3.421l3.195-.689a1.75 1.75 0 0 0 1.341-2.08z"/><path d="m75.436 79.776-8.855 1.91a1.75 1.75 0 1 0 .738 3.421l8.855-1.91a1.75 1.75 0 0 0 -.738-3.421z"/><path d="m47.744 91.767a11.026 11.026 0 1 0 13.1 8.454 11.037 11.037 0 0 0 -13.1-8.454zm3.911 18.133a7.526 7.526 0 1 1 5.769-8.944 7.536 7.536 0 0 1 -5.769 8.944z"/><path d="m123.4 86.729-1.493-6.924a1.75 1.75 0 0 0 -2.08-1.342l-6.593 1.422-11.791-54.685a1.751 1.751 0 0 0 -2.079-1.341l-35.064 7.56-19.622 4.232-6.408-29.713a1.751 1.751 0 0 0 -1.711-1.381h-30.252a1.749 1.749 0 0 0 -1.75 1.75v7.083a1.75 1.75 0 0 0 1.75 1.75h23.121l14.543 67.436a20.887 20.887 0 1 0 26.8 17.293l51.287-11.061a1.75 1.75 0 0 0 1.342-2.079zm-68.683-4.529-6.217-28.814 17.912-3.863 2.629 12.177a1.747 1.747 0 0 0 1.377 1.349 1.722 1.722 0 0 0 .333.032 1.751 1.751 0 0 0 1.45-.77l4.706-6.96 6.593 4.464a1.75 1.75 0 0 0 2.692-1.815l-2.626-12.177 17.912-3.863 8.339 38.663-43.127 9.3a21 21 0 0 0 -11.973-7.723zm22.341-49.952 2.718 12.6 2.075 9.62-4.432-3a1.751 1.751 0 0 0 -2.431.469l-3.388 5.015-4.851-22.481zm23.682 6.291-17.912 3.861-2.349-10.89 17.912-3.863zm-37.412-3.33 2.349 10.891-17.912 3.865-2.349-10.893zm-32.488-23.569h-22.783v-3.583h27.089l6.479 30.043 9.4 43.592a20.775 20.775 0 0 0 -3.636.143l-14.838-68.814a1.75 1.75 0 0 0 -1.711-1.381zm22.9 107.909a17.4 17.4 0 1 1 13.332-20.671 17.417 17.417 0 0 1 -13.337 20.671zm16.3-23.1a20.739 20.739 0 0 0 -1.369-3.371l50.189-10.824.756 3.5z"/></g></svg>